<?xml version="1.0" encoding="UTF-8" standalone="no"?>
<!-- Created with Inkscape (http://www.inkscape.org/) -->

<svg
   xmlns:osb="http://www.openswatchbook.org/uri/2009/osb"
   xmlns:dc="http://purl.org/dc/elements/1.1/"
   xmlns:cc="http://creativecommons.org/ns#"
   xmlns:rdf="http://www.w3.org/1999/02/22-rdf-syntax-ns#"
   xmlns:svg="http://www.w3.org/2000/svg"
   xmlns="http://www.w3.org/2000/svg"
   xmlns:xlink="http://www.w3.org/1999/xlink"
   xmlns:sodipodi="http://sodipodi.sourceforge.net/DTD/sodipodi-0.dtd"
   xmlns:inkscape="http://www.inkscape.org/namespaces/inkscape"
   width="64px"
   height="64px"
   id="svg5007"
   version="1.1"
   inkscape:version="0.48.0 r9654"
   sodipodi:docname="cowboxer.svg"
   inkscape:export-filename="/usr/src/cowboxer/resource/images/cowboxer.png"
   inkscape:export-xdpi="90"
   inkscape:export-ydpi="90">
  <title
     id="title5060">cowboxer</title>
  <defs
     id="defs5009">
    <linearGradient
       id="linearGradient5343">
      <stop
         style="stop-color:#ffffff;stop-opacity:1;"
         offset="0"
         id="stop5345" />
      <stop
         id="stop5353"
         offset="0.27848101"
         style="stop-color:#7f7f7f;stop-opacity:0.70196078;" />
      <stop
         style="stop-color:#ffffff;stop-opacity:0.40268457;"
         offset="1"
         id="stop5347" />
    </linearGradient>
    <linearGradient
       id="linearGradient3762"
       osb:paint="gradient">
      <stop
         style="stop-color:#ffff00;stop-opacity:1;"
         offset="0"
         id="stop3764" />
      <stop
         style="stop-color:#ffff00;stop-opacity:0;"
         offset="1"
         id="stop3766" />
    </linearGradient>
    <filter
       inkscape:collect="always"
       id="filter3776">
      <feGaussianBlur
         inkscape:collect="always"
         stdDeviation="0.22262236"
         id="feGaussianBlur3778" />
    </filter>
    <radialGradient
       inkscape:collect="always"
       xlink:href="#linearGradient5343"
       id="radialGradient5351"
       cx="32.140755"
       cy="32.227306"
       fx="32.140755"
       fy="32.227306"
       r="31.010485"
       gradientUnits="userSpaceOnUse" />
  </defs>
  <sodipodi:namedview
     id="base"
     pagecolor="#ffffff"
     bordercolor="#666666"
     borderopacity="1.0"
     inkscape:pageopacity="0.0"
     inkscape:pageshadow="2"
     inkscape:zoom="5.5"
     inkscape:cx="-2.9440592"
     inkscape:cy="34.081805"
     inkscape:current-layer="layer1"
     showgrid="true"
     inkscape:document-units="px"
     inkscape:grid-bbox="true"
     inkscape:window-width="864"
     inkscape:window-height="832"
     inkscape:window-x="22"
     inkscape:window-y="22"
     inkscape:window-maximized="0" />
  <metadata
     id="metadata5012">
    <rdf:RDF>
      <cc:Work
         rdf:about="">
        <dc:format>image/svg+xml</dc:format>
        <dc:type
           rdf:resource="http://purl.org/dc/dcmitype/StillImage" />
        <dc:title>cowboxer</dc:title>
        <cc:license
           rdf:resource="http://creativecommons.org/licenses/by/3.0/" />
        <dc:date>2010-01-06</dc:date>
        <dc:creator>
          <cc:Agent>
            <dc:title>Zdenko Podobný</dc:title>
          </cc:Agent>
        </dc:creator>
        <dc:publisher>
          <cc:Agent>
            <dc:title>Zdenko Podobný</dc:title>
          </cc:Agent>
        </dc:publisher>
        <dc:language>English</dc:language>
        <dc:subject>
          <rdf:Bag>
            <rdf:li>cow</rdf:li>
            <rdf:li>head</rdf:li>
            <rdf:li>cowboxer</rdf:li>
          </rdf:Bag>
        </dc:subject>
        <dc:description>icon for cowboxer</dc:description>
      </cc:Work>
      <cc:License
         rdf:about="http://creativecommons.org/licenses/by/3.0/">
        <cc:permits
           rdf:resource="http://creativecommons.org/ns#Reproduction" />
        <cc:permits
           rdf:resource="http://creativecommons.org/ns#Distribution" />
        <cc:requires
           rdf:resource="http://creativecommons.org/ns#Notice" />
        <cc:requires
           rdf:resource="http://creativecommons.org/ns#Attribution" />
        <cc:permits
           rdf:resource="http://creativecommons.org/ns#DerivativeWorks" />
      </cc:License>
    </rdf:RDF>
  </metadata>
  <g
     id="layer1"
     inkscape:label="Layer 1"
     inkscape:groupmode="layer">
    <rect
       style="fill:url(#radialGradient5351);stroke:#aa4400;stroke-width:1.28958821000000001;stroke-linecap:round;stroke-linejoin:round;stroke-miterlimit:12.50000000000000000;stroke-opacity:1;stroke-dasharray:none;filter:url(#filter3776);fill-opacity:1"
       id="rect4212"
       width="59.662792"
       height="59.662792"
       x="2.3093603"
       y="2.3959088"
       ry="4.0431547"
       rx="4.0601735" />
    <g
       id="g4994"
       transform="matrix(0.43686599,0,0,0.43686599,-72.564632,-156.15037)">
      <path
         sodipodi:nodetypes="cssssssssscsscsssssscccsssssccsscsssssscsssccssssssssssssssssss"
         style="fill:#b9b9b9;fill-opacity:1"
         d="m 227.90768,475.68334 c -3.07443,-0.59081 -5.8345,-6.38738 -6.56719,-13.79214 -1.87799,-18.97923 -1.79099,-18.59529 -4.05092,-17.87801 -1.15223,0.3657 -4.8971,0.61716 -8.32195,0.5588 -7.48499,-0.12755 -12.80568,-2.55221 -17.14035,-7.81092 -2.85336,-3.46162 -2.95275,-3.8571 -1.61802,-6.43818 0.89026,-1.72158 3.04812,-3.371 5.7701,-4.41053 4.15394,-1.58641 4.61086,-1.56814 10.23663,0.40916 6.98723,2.45581 9.45794,2.60463 9.45794,0.56968 0,-0.825 0.47656,-1.5 1.05902,-1.5 0.58246,0 0.81779,-0.39031 0.52296,-0.86736 -0.29484,-0.47705 -2.53064,-1.09218 -4.96846,-1.36695 -11.24917,-1.26795 -21.00487,-9.85637 -28.62165,-25.19705 -5.01741,-10.10539 -5.77445,-12.17033 -4.07728,-11.12143 0.50302,0.31089 1.08753,0.0464 1.29889,-0.58766 0.21137,-0.6341 2.22957,1.9506 4.48489,5.74377 5.16744,8.69099 11.05882,15.41244 15.69967,17.91171 1.98108,1.06688 3.60196,2.43641 3.60196,3.04339 0,1.09083 1.1671,1.78561 8,4.76251 7.4495,3.24552 8.33487,3.13307 10.17574,-1.29242 0.95217,-2.28905 1.18749,-2.63955 3.25,-4.02851 3.2193,-2.22685 2.20194,-2.12962 6.95694,-2.78431 12.48431,-1.59925 14.28787,0.0756 20.19158,2.78435 0.89452,0 2.29783,1.73946 3.25,4.02851 1.84087,4.42549 2.72624,4.53794 10.17574,1.29242 6.8329,-2.9769 8,-3.67168 8,-4.76251 0,-0.60698 1.62088,-1.97651 3.60195,-3.04339 4.64086,-2.49927 10.53224,-9.22072 15.69968,-17.91171 2.25532,-3.79317 4.27352,-6.37787 4.48489,-5.74377 0.21136,0.6341 0.79587,0.89855 1.29889,0.58766 1.69717,-1.0489 0.94013,1.01604 -4.07728,11.12143 -7.61678,15.34068 -17.37248,23.9291 -28.62165,25.19705 -2.43782,0.27477 -4.67362,0.8899 -4.96846,1.36695 -0.29483,0.47705 -0.0595,0.86736 0.52296,0.86736 0.58246,0 1.05902,0.675 1.05902,1.5 0,2.03495 2.47071,1.88613 9.45794,-0.56968 5.62577,-1.9773 6.08269,-1.99557 10.23663,-0.40916 2.72198,1.03953 4.87984,2.68895 5.7701,4.41053 1.33473,2.58108 1.23534,2.97656 -1.61802,6.43818 -4.33467,5.25871 -9.65536,7.68337 -17.14035,7.81092 -3.42485,0.0584 -7.16972,-0.1931 -8.32195,-0.5588 -2.25993,-0.71728 -2.17294,-1.10122 -4.05092,17.87801 -0.81996,8.2867 -3.36946,13.05721 -7.41005,13.86532 -3.43176,0.68636 -18.99842,0.63615 -22.68962,-0.0732 z m 6.65254,-8.65514 c 0.9153,-1.10287 0.65462,-1.2719 -1.3659,-0.88565 -1.3734,0.26254 -2.25078,0.87589 -1.94973,1.363 0.78493,1.27005 2.01204,1.09338 3.31563,-0.47735 z m 13.54303,0.47735 c 0.30105,-0.48711 -0.57633,-1.10046 -1.94973,-1.363 -2.02052,-0.38625 -2.2812,-0.21722 -1.3659,0.88565 1.30359,1.57073 2.5307,1.7474 3.31563,0.47735 z m -9.42933,-6.7368 c 0,-0.86395 -1.11851,-1.37755 -3,-1.37755 -3.42552,0 -3.67803,0.5933 -1.34821,3.16773 1.25522,1.38699 1.97548,1.55657 3,0.70629 0.74152,-0.6154 1.34821,-1.73881 1.34821,-2.49647 z m 8,-0.53254 c 0,-0.46475 -1.35,-0.84501 -3,-0.84501 -3.13798,0 -3.93534,1.66466 -1.81365,3.78635 0.91512,0.91513 1.60097,0.81111 3,-0.45499 0.99751,-0.90273 1.81365,-2.02159 1.81365,-2.48635 z"
         id="path4151"
         inkscape:connector-curvature="0" />
      <path
         style="fill:#a3a3a3;fill-opacity:1"
         d="m 227.90768,475.68334 c -3.86323,-0.74239 -5.90476,-6.5024 -6.83771,-19.29214 -0.46138,-6.325 -0.78924,-12.0625 -0.72858,-12.75 0.12366,-1.4013 -1.2756,-1.69307 -2.05691,-0.4289 -0.8963,1.45025 -14.41366,1.29156 -17.86707,-0.20975 -1.78392,-0.77553 -5.14817,-3.29954 -7.47611,-5.60892 -4.73235,-4.6946 -4.63749,-6.17858 0.63496,-9.93289 3.66037,-2.60641 9.03943,-2.66079 15.62438,-0.15795 l 5.02672,1.91058 2.18772,-2.45611 c 2.41332,-2.7094 2.24403,-2.85033 -4.5738,-3.80772 -6.51878,-0.91539 -13.28527,-4.81278 -18.76471,-10.80816 -5.87732,-6.43072 -12.58638,-19.3316 -11.73883,-22.57264 0.49908,-1.90848 1.26002,-1.17771 5.50197,5.28386 2.70754,4.12426 7.56359,9.82318 10.79123,12.66427 3.45748,3.0434 5.65492,5.72202 5.34872,6.51997 -0.30537,0.79579 0.14864,1.35436 1.10084,1.35436 0.89131,0 2.40195,0.3975 3.35699,0.88333 10.44874,5.31531 15.23643,5.9318 15.23643,1.96193 0,-1.06742 1.125,-2.98337 2.5,-4.25768 1.375,-1.27431 2.5,-2.71532 2.5,-3.20225 0,-0.48693 5.4,-0.88533 12,-0.88533 6.6,0 12,0.3984 12,0.88533 0,0.48693 1.125,1.92794 2.5,3.20225 1.375,1.27431 2.5,3.19026 2.5,4.25768 0,3.96987 4.78769,3.35338 15.23643,-1.96193 0.95504,-0.48583 2.46568,-0.88333 3.35699,-0.88333 0.9522,0 1.40621,-0.55857 1.10084,-1.35436 -0.3062,-0.79795 1.89124,-3.47657 5.34872,-6.51997 3.22764,-2.84109 8.08369,-8.54001 10.79122,-12.66427 4.24196,-6.46157 5.0029,-7.19234 5.50198,-5.28386 0.84755,3.24104 -5.86151,16.14192 -11.73883,22.57264 -5.47944,5.99538 -12.24593,9.89277 -18.76471,10.80816 -6.81784,0.95739 -6.98713,1.09832 -4.5738,3.80772 l 2.18772,2.45611 5.02672,-1.91058 c 6.58495,-2.50284 11.96401,-2.44846 15.62438,0.15795 5.27245,3.75431 5.36731,5.23829 0.63496,9.93289 -2.32794,2.30938 -5.69219,4.83339 -7.47611,5.60892 -3.45341,1.50131 -16.97077,1.66 -17.86708,0.20975 -0.7813,-1.26417 -2.18056,-0.97241 -2.05691,0.4289 0.0607,0.6875 -0.26719,6.425 -0.72857,12.75 -1.00552,13.78454 -2.83454,18.39612 -7.68057,19.36532 -3.43176,0.68636 -18.99842,0.63615 -22.68962,-0.0732 z m 8.11279,-9.29214 c 1.38838,-1.65 3.00972,-3 3.60299,-3 0.59326,0 2.42488,1.4625 4.07028,3.25 2.85307,3.09948 3.05801,3.16397 4.42482,1.3924 1.76735,-2.29069 -0.0714,-5.15587 -2.19464,-3.41967 -0.90285,0.73828 -1.25,0.58796 -1.25,-0.54127 0,-0.85988 0.45,-1.84154 1,-2.18146 1.61337,-0.99712 1.15496,-2.31604 -1.04799,-3.01523 -1.12639,-0.3575 -2.70139,-0.10773 -3.5,0.55506 -1.13273,0.94008 -1.77129,0.94008 -2.90402,0 -0.79861,-0.66279 -2.37361,-0.91256 -3.5,-0.55506 -2.20295,0.69919 -2.66136,2.01811 -1.04799,3.01523 0.55,0.33992 1,1.35648 1,2.25902 0,1.21449 -0.29207,1.34891 -1.12379,0.51719 -1.71535,-1.71535 -3.93941,0.70332 -2.73452,2.97379 1.29654,2.4432 2.30002,2.2022 5.20486,-1.25 z m -5.34655,-5.05902 c 0,-0.58246 -0.45,-0.7809 -1,-0.44098 -0.55,0.33992 -1,0.81648 -1,1.05902 0,0.24254 0.45,0.44098 1,0.44098 0.55,0 1,-0.47656 1,-1.05902 z m 19.5,0.059 c -0.33992,-0.55 -0.81648,-1 -1.05902,-1 -0.24254,0 -0.44098,0.45 -0.44098,1 0,0.55 0.47656,1 1.05902,1 0.58246,0 0.7809,-0.45 0.44098,-1 z"
         id="path4149"
         inkscape:connector-curvature="0" />
      <path
         style="fill:#8c8c8c;fill-opacity:1"
         d="m 227.90768,475.68334 c -4.08394,-0.7848 -5.93233,-6.42973 -6.74586,-20.60166 -0.64646,-11.26149 -0.93186,-12.7307 -2.36161,-12.15736 -3.94233,1.58091 -13.47317,1.60612 -17.55711,0.0464 -5.08803,-1.94313 -11.90025,-8.62194 -11.40694,-11.18352 0.50306,-2.61215 6.58117,-6.39605 10.27403,-6.39605 1.72728,0 5.58342,0.8603 8.5692,1.91178 l 5.4287,1.91179 2.28292,-2.46331 c 1.2556,-1.35482 2.28291,-2.60244 2.28291,-2.77249 0,-0.17005 -2.33523,-0.58576 -5.18941,-0.9238 -7.41251,-0.8779 -14.96796,-4.93291 -20.35487,-10.92444 -5.49497,-6.11173 -10.72902,-15.94105 -10.90288,-20.47514 -0.14158,-3.69238 -0.0525,-3.62553 4.66231,3.49817 1.91566,2.8944 5.46343,7.3755 7.88393,9.95798 2.42051,2.58249 4.40421,4.93934 4.40822,5.23745 0.0252,1.86909 3.58198,4.93111 6.9927,6.01998 2.2,0.70235 5.17783,1.88483 6.61741,2.62773 1.43957,0.7429 4.09604,1.47303 5.90325,1.62251 2.85351,0.23603 3.38845,-0.0997 4.06573,-2.55157 0.42893,-1.55285 1.92219,-3.88202 3.31834,-5.17593 2.34706,-2.17518 3.37213,-2.35256 13.59527,-2.35256 10.22314,0 11.24821,0.17738 13.59527,2.35256 1.39615,1.29391 2.88941,3.62308 3.31834,5.17593 0.67728,2.45188 1.21222,2.7876 4.06573,2.55157 1.80721,-0.14948 4.46368,-0.87961 5.90325,-1.62251 1.43958,-0.7429 4.41741,-1.92538 6.61741,-2.62773 3.41072,-1.08887 6.96751,-4.15089 6.9927,-6.01998 0.004,-0.29811 1.98771,-2.65496 4.40822,-5.23745 2.4205,-2.58248 5.96827,-7.06358 7.88393,-9.95798 4.7148,-7.1237 4.80389,-7.19055 4.66231,-3.49817 -0.17386,4.53409 -5.40791,14.36341 -10.90288,20.47514 -5.38691,5.99153 -12.94236,10.04654 -20.35487,10.92444 -2.85418,0.33804 -5.18941,0.75375 -5.18941,0.9238 0,0.17005 1.02731,1.41767 2.28291,2.77249 l 2.28292,2.46331 5.4287,-1.91179 c 2.98578,-1.05148 6.84192,-1.91178 8.5692,-1.91178 3.69286,0 9.77097,3.7839 10.27403,6.39605 0.49331,2.56158 -6.31891,9.24039 -11.40694,11.18352 -4.08394,1.55967 -13.61478,1.53446 -17.55711,-0.0464 -1.42975,-0.57334 -1.71515,0.89587 -2.36161,12.15736 -0.87099,15.17288 -2.51827,19.66075 -7.58872,20.67484 -3.43176,0.68636 -18.99842,0.63615 -22.68962,-0.0732 z m 7.76624,-8.79214 c 3.00782,-3.20168 4.70984,-3.15022 8.26956,0.25 2.78033,2.65575 2.92677,2.68497 4.27269,0.85268 0.76652,-1.04353 1.12545,-2.33134 0.7976,-2.8618 -0.32784,-0.53047 -0.042,-1.30695 0.63528,-1.72551 0.90198,-0.55745 0.94952,-1.28765 0.17771,-2.72978 -0.93593,-1.74882 -2.07252,-1.95853 -10.17383,-1.87717 -7.81048,0.0784 -9.27036,0.35999 -10.16593,1.96066 -0.77525,1.38562 -0.69981,2.08289 0.29163,2.69563 0.73555,0.4546 1.02873,1.13518 0.65151,1.5124 -0.79499,0.79499 0.93136,4.42289 2.10465,4.42289 0.43478,0 1.84738,-1.125 3.13913,-2.5 z m -3.25,-2.93013 c -0.9625,-0.7097 -1.75,-2.12825 -1.75,-3.15234 0,-1.73537 0.14402,-1.71795 2.11806,0.25608 2.53114,2.53115 2.24033,4.81955 -0.36806,2.89626 z m 12.25,0.0936 c 0,-0.74442 0.9,-2.16797 2,-3.16346 1.93383,-1.75009 2,-1.74663 2,0.10447 0,1.05294 -0.9,2.4765 -2,3.16346 -1.6301,1.01801 -2,0.99869 -2,-0.10447 z m -60,-69.66346 c -0.63912,-1.19421 -1.38176,-1.95157 -1.65031,-1.68302 -0.26855,0.26854 0.0884,1.41162 0.79317,2.54016 1.66654,2.66856 2.36841,1.96669 0.85714,-0.85714 z m 111.93639,-1.5 c 0,-0.55 -0.66069,-0.12649 -1.46819,0.94113 -0.80751,1.06762 -1.4682,2.39113 -1.4682,2.94113 0,0.55 0.66069,0.12649 1.4682,-0.94113 0.8075,-1.06762 1.46819,-2.39113 1.46819,-2.94113 z m -96.43639,18.5 c -0.33992,-0.55 -0.14148,-1 0.44098,-1 0.58246,0 1.05902,0.45 1.05902,1 0,0.55 -0.19844,1 -0.44098,1 -0.24254,0 -0.7191,-0.45 -1.05902,-1 z m 77.5,0.059 c 0,-0.58246 0.45,-1.05902 1,-1.05902 0.55,0 1,0.19844 1,0.44098 0,0.24254 -0.45,0.7191 -1,1.05902 -0.55,0.33992 -1,0.14148 -1,-0.44098 z"
         id="path4147"
         inkscape:connector-curvature="0" />
      <path
         style="fill:#767676;fill-opacity:1"
         d="m 227.90768,475.68334 c -4.07281,-0.78266 -5.91111,-6.42394 -6.71579,-20.60901 -0.6429,-11.33314 -0.91755,-12.74052 -2.37252,-12.15736 -3.32324,1.33198 -13.24483,1.59654 -16.73062,0.44612 -3.78671,-1.24973 -9.83819,-6.02591 -11.44946,-9.03659 -1.3422,-2.50793 -0.30041,-4.56512 3.50189,-6.91506 3.81274,-2.35641 7.93446,-2.5691 12.66062,-0.65333 6.14733,2.49185 8.87212,2.83606 8.87212,1.12076 0,-0.85274 0.675,-1.80946 1.5,-2.12604 2.85045,-1.09382 1.48065,-2.10643 -3.75,-2.77216 -11.38614,-1.44917 -21.6247,-9.45531 -27.84167,-21.77106 -3.18285,-6.3052 -3.72295,-8.27769 -1.44013,-5.25954 2.10514,2.78325 1.86506,1.0147 -0.48852,-3.59871 -2.87207,-5.62972 -1.72301,-4.90189 2.03634,1.28984 1.75317,2.8875 4.74747,6.87542 6.65401,8.86204 1.90654,1.98663 3.57501,4.35175 3.7077,5.25584 0.33865,2.3074 6.67778,8.63212 8.65177,8.63212 0.90044,0 1.94557,0.3084 2.3225,0.68534 1.00222,1.00221 7.42293,3.10084 11.69539,3.82267 3.59904,0.60805 3.7235,0.52679 4.35582,-2.84376 1.03131,-5.49735 4.36843,-7.06986 15.64553,-7.37248 11.84576,-0.31787 15.92473,1.3525 17.39126,7.12186 0.91119,3.58466 1.05149,3.67913 4.57875,3.0832 4.21626,-0.71233 10.63326,-2.81551 11.62925,-3.81149 0.37693,-0.37694 1.42206,-0.68534 2.3225,-0.68534 1.97399,0 8.31312,-6.32472 8.65177,-8.63212 0.13269,-0.90409 1.80116,-3.26921 3.7077,-5.25584 1.90654,-1.98662 4.90084,-5.97454 6.65401,-8.86204 3.75934,-6.19173 4.90841,-6.91956 2.03634,-1.28984 -2.35358,4.61341 -2.59366,6.38196 -0.48852,3.59871 2.28282,-3.01815 1.74272,-1.04566 -1.44013,5.25954 -6.21697,12.31575 -16.45553,20.32189 -27.84167,21.77106 -5.23065,0.66573 -6.60045,1.67834 -3.75,2.77216 0.825,0.31658 1.5,1.2733 1.5,2.12604 0,1.7153 2.72479,1.37109 8.87212,-1.12076 4.72616,-1.91577 8.84788,-1.70308 12.66062,0.65333 3.8023,2.34994 4.84409,4.40713 3.50189,6.91506 -1.61127,3.01068 -7.66275,7.78686 -11.44946,9.03659 -3.48579,1.15042 -13.40738,0.88586 -16.73062,-0.44612 -1.45497,-0.58316 -1.72962,0.82422 -2.37252,12.15736 -0.86162,15.18874 -2.4995,19.67036 -7.55865,20.68219 -3.43176,0.68636 -18.99842,0.63615 -22.68962,-0.0732 z m 8.17533,-8.79214 c 1.375,-1.375 2.99091,-2.5 3.59091,-2.5 0.6,0 2.21591,1.125 3.59091,2.5 3.47703,3.47704 5.14003,3.13009 6.48305,-1.35253 1.48841,-4.96786 -0.0846,-8.59627 -3.28609,-7.58014 -1.14968,0.36489 -4.20422,0.66344 -6.78787,0.66344 -2.58365,0 -5.6382,-0.29855 -6.78787,-0.66344 -3.20154,-1.01613 -4.7745,2.61228 -3.28609,7.58014 1.34302,4.48262 3.00602,4.82957 6.48305,1.35253 z m -4.20909,-3.7 c -0.66,-0.66 -1.2,-1.85474 -1.2,-2.65499 0,-1.15498 0.41237,-1.08179 2,0.35499 2.05439,1.8592 2.61695,3.5 1.2,3.5 -0.44,0 -1.34,-0.54 -2,-1.2 z m 12.8,0.35499 c 0,-0.46476 0.9,-1.6595 2,-2.65499 1.58762,-1.43678 2,-1.50997 2,-0.35499 0,1.56849 -1.89801,3.85499 -3.2,3.85499 -0.44,0 -0.8,-0.38026 -0.8,-0.84501 z M 222.98977,435.6412 c 0.23864,-0.4125 0.11176,-1.63742 -0.28196,-2.72205 -0.63581,-1.75158 -0.77401,-1.66774 -1.23619,0.75 -0.47734,2.497 0.48859,3.75172 1.51815,1.97205 z m 34.88645,-1.97205 c -0.46218,-2.41774 -0.60038,-2.50158 -1.23619,-0.75 -0.75737,2.08643 -0.37655,3.47205 0.95423,3.47205 0.44128,0 0.56816,-1.22492 0.28196,-2.72205 z m -70.7023,-35.27795 c -0.33992,-0.55 -0.81648,-1 -1.05902,-1 -0.24254,0 -0.44098,0.45 -0.44098,1 0,0.55 0.47656,1 1.05902,1 0.58246,0 0.7809,-0.45 0.44098,-1 z m 106.5,-0.059 c 0,-0.58246 -0.45,-0.7809 -1,-0.44098 -0.55,0.33992 -1,0.81648 -1,1.05902 0,0.24254 0.45,0.44098 1,0.44098 0.55,0 1,-0.47656 1,-1.05902 z m -94.97104,12.09808 c -0.80907,-0.51167 -1.2107,-1.19066 -0.8925,-1.50885 0.3182,-0.3182 1.14776,0.10733 1.84348,0.94562 1.4426,1.73822 1.16599,1.90204 -0.95098,0.56323 z m 80.95204,-0.51617 c 1.44013,-1.73524 2.019,-1.91584 2.019,-0.62988 0,0.49116 -0.73865,1.17646 -1.64144,1.52289 -1.37248,0.52667 -1.43434,0.38034 -0.37756,-0.89301 z"
         id="path4145"
         inkscape:connector-curvature="0" />
      <path
         style="fill:#606060;fill-opacity:1"
         d="m 227.91289,475.68402 c -3.0168,-0.58015 -5.36511,-5.39048 -5.16431,-10.57867 0.0897,-2.31778 -0.3294,-6.23915 -0.93134,-8.71415 -1.09516,-4.50301 -1.45237,-11.668 -0.45766,-9.17985 0.38879,0.97251 0.8927,0.79914 1.91356,-0.65834 0.89486,-1.2776 2.09696,-1.79252 3.39328,-1.45352 1.10413,0.28874 2.0075,0.0366 2.0075,-0.56027 0,-0.60386 -0.74238,-0.80037 -1.67361,-0.44303 -1.29255,0.496 -1.5195,0.24062 -0.99675,-1.12162 0.37226,-0.97012 0.37276,-2.25588 0.001,-2.85724 -0.42724,-0.69128 -0.90326,-0.44481 -1.29439,0.67022 -0.46573,1.32771 -2.09138,1.8936 -6.57749,2.28963 -13.25212,1.16989 -15.81766,0.85126 -20.81161,-2.58466 -2.57286,-1.77018 -5.43547,-4.37466 -6.36135,-5.78773 -1.64639,-2.5127 -1.61322,-2.63194 1.50762,-5.42042 4.68731,-4.18811 7.42127,-4.51535 15.52583,-1.85836 5.09455,1.67019 7.17466,1.98315 7.4615,1.12263 0.21874,-0.65624 1.08611,-1.88155 1.92748,-2.72292 1.92355,-1.92355 1.95436,-1.9035 -5.00738,-3.25852 -8.01553,-1.56012 -12.42294,-3.84333 -17.84678,-9.24531 -4.22998,-4.21293 -9.42782,-12.02129 -7.00587,-10.52444 1.89737,1.17264 2.35458,-1.52458 0.58912,-3.47539 -0.96717,-1.06872 -1.54617,-2.15545 -1.28665,-2.41497 0.67535,-0.67535 8.40799,9.69838 8.0575,10.80956 -0.16044,0.50868 0.4718,1.76855 1.40499,2.79971 0.93319,1.03116 1.28946,1.87652 0.79172,1.87858 -3.26894,0.0135 11.23071,6.52926 19.09501,8.58079 5.65664,1.47563 6.5,1.30438 6.5,-1.31986 0,-4.01345 5.35566,-8.24303 10.60576,-8.37578 15.13107,-0.3826 16.94206,-0.11371 20.28849,3.01232 1.84793,1.72622 3.10576,3.89842 3.10576,5.36346 0,2.62424 0.84336,2.79549 6.5,1.31986 7.8643,-2.05153 22.36395,-8.56729 19.09501,-8.58079 -0.49774,-0.002 -0.14147,-0.84742 0.79172,-1.87858 0.93319,-1.03116 1.56544,-2.29103 1.40499,-2.79971 -0.35049,-1.11118 7.38215,-11.48491 8.05751,-10.80956 0.25951,0.25952 -0.31948,1.34625 -1.28666,2.41497 -1.76546,1.95081 -1.30825,4.64803 0.58913,3.47539 2.42194,-1.49685 -2.77589,6.31151 -7.00588,10.52444 -5.42384,5.40198 -9.83125,7.68519 -17.84678,9.24531 -6.96174,1.35502 -6.93093,1.33497 -5.00737,3.25852 0.84137,0.84137 1.70873,2.06668 1.92748,2.72292 0.28684,0.86052 2.36694,0.54756 7.46149,-1.12263 8.10457,-2.65699 10.83852,-2.32975 15.52583,1.85836 3.12085,2.78848 3.15401,2.90772 1.50763,5.42042 -0.92588,1.41307 -3.78849,4.01755 -6.36136,5.78773 -4.99395,3.43592 -7.55949,3.75455 -20.8116,2.58466 -4.48612,-0.39603 -6.11176,-0.96192 -6.5775,-2.28963 -0.39113,-1.11503 -0.86714,-1.3615 -1.29438,-0.67022 -0.37166,0.60136 -0.37117,1.88712 0.001,2.85724 0.52274,1.36224 0.29579,1.61762 -0.99676,1.12162 -0.93122,-0.35734 -1.6736,-0.16083 -1.6736,0.44303 0,0.59688 0.90337,0.84901 2.0075,0.56027 1.29632,-0.339 2.49842,0.17592 3.39328,1.45352 1.02086,1.45748 1.52477,1.63085 1.91356,0.65834 0.99471,-2.48815 0.6375,4.67684 -0.45766,9.17985 -0.60194,2.475 -1.02104,6.39637 -0.93134,8.71415 0.22531,5.82163 -2.05272,9.86133 -6.00689,10.65216 -3.42626,0.68525 -18.99638,0.6348 -22.67948,-0.0735 z m 7.9689,-7.81168 3.79213,-2.50952 3.89375,2.57677 c 2.14157,1.41722 5.35181,2.6611 7.13387,2.76419 2.96255,0.17137 3.27075,-0.091 3.59782,-3.06258 0.19675,-1.7875 -0.0885,-3.25 -0.63386,-3.25 -0.54537,0 -0.99158,-0.8449 -0.99158,-1.87755 0,-1.03266 -0.67005,-2.43365 -1.48899,-3.11331 -0.81894,-0.67966 -1.21129,-1.68508 -0.87188,-2.23425 0.3394,-0.54917 -0.003,-1.40642 -0.76102,-1.90499 -1.13546,-0.74688 -1.0773,-1.084 0.33036,-1.91464 0.94083,-0.55518 1.4544,-1.67024 1.14301,-2.48171 -0.311,-0.81045 -0.0673,-1.47355 0.54153,-1.47355 0.60884,0 1.10699,-0.675 1.10699,-1.5 0,-1.77004 -1.3655,-1.90994 -4.14144,-0.42431 -1.82517,0.97681 -1.90782,0.88488 -0.89907,-1 0.90464,-1.69033 0.82004,-2.07569 -0.45569,-2.07569 -2.28863,0 -2.98974,2.80556 -1.19634,4.78724 1.45087,1.6032 1.04742,1.71276 -6.30746,1.71276 -7.35488,0 -7.75834,-0.10956 -6.30746,-1.71276 1.7934,-1.98168 1.09229,-4.78724 -1.19634,-4.78724 -1.27573,0 -1.36033,0.38536 -0.45569,2.07569 1.00875,1.88488 0.9261,1.97681 -0.89908,1 -2.77593,-1.48563 -4.14143,-1.34573 -4.14143,0.42431 0,0.825 0.49814,1.5 1.10699,1.5 0.60884,0 0.85253,0.6631 0.54153,1.47355 -0.31139,0.81147 0.20218,1.92653 1.14301,2.48171 1.40766,0.83064 1.46582,1.16776 0.33035,1.91464 -0.75796,0.49857 -1.10041,1.35582 -0.76101,1.90499 0.33941,0.54917 -0.0529,1.55459 -0.87188,2.23425 -0.81895,0.67966 -1.48899,2.08065 -1.48899,3.11331 0,1.03265 -0.44621,1.87755 -0.99158,1.87755 -0.71859,0 -0.78027,5.37866 -0.0759,6.61883 0.49922,0.87897 7.38145,-1.2226 10.27535,-3.13769 z m -4.22793,-5.00531 c -1.72845,-2.08265 -0.45366,-3.09241 1.47244,-1.16631 0.85119,0.85119 1.54762,1.80477 1.54762,2.11905 0,1.11053 -1.7715,0.55168 -3.02006,-0.95274 z m 13.02006,0.95274 c 0,-0.31428 0.69643,-1.26786 1.54762,-2.11905 1.9261,-1.9261 3.20089,-0.91634 1.47244,1.16631 -1.24856,1.50442 -3.02006,2.06327 -3.02006,0.95274 z m -8,-8.42857 c 0,-0.55 0.47656,-1 1.05902,-1 0.58246,0 0.7809,-0.45 0.44098,-1 -0.33992,-0.55 0.33508,-1 1.5,-1 1.16492,0 1.83992,0.45 1.5,1 -0.33992,0.55 -0.14148,1 0.44098,1 0.58246,0 1.05902,0.45 1.05902,1 0,0.55 -1.35,1 -3,1 -1.65,0 -3,-0.45 -3,-1 z m -8.01531,-1.15638 c 0.008,-0.36101 -0.87667,-0.42312 -1.96687,-0.13803 -1.48329,0.38789 -2.2454,-0.17396 -3.02798,-2.23231 -1.24164,-3.26576 -2.34775,-2.74748 -1.48369,0.6952 0.97566,3.88734 6.39424,5.28841 6.47854,1.67514 z m 28.51751,-1.71162 c 0.85809,-3.41428 -0.25718,-3.90666 -1.49204,-0.65872 -0.78258,2.05835 -1.5447,2.6202 -3.02798,2.23231 -2.18229,-0.57068 -2.23063,-0.51662 -1.42216,1.59021 0.82998,2.16292 5.18639,-0.15656 5.94218,-3.1638 z m -19.57249,-5.882 c -0.0614,-2.40075 -0.17246,-2.496 -0.87486,-0.75 -0.44252,1.1 -0.60934,2.3375 -0.3707,2.75 0.84706,1.46421 1.3149,0.713 1.24556,-2 z m 5.35978,-0.251 c -0.71955,-2.75155 -1.28949,-2.50402 -1.28949,0.56002 0,1.40746 0.40775,2.30701 0.90612,1.999 0.49837,-0.30801 0.67088,-1.45956 0.38337,-2.55902 z m -2.28949,-3.499 c 0,-0.825 -0.45,-1.5 -1,-1.5 -0.55,0 -1,0.675 -1,1.5 0,0.825 0.45,1.5 1,1.5 0.55,0 1,-0.675 1,-1.5 z m -3.24708,-2.875 c 0.9201,-1.44477 0.96396,-6.625 0.0561,-6.625 -0.38004,0 -0.97364,0.45734 -1.3191,1.01631 -0.34547,0.55897 -1.15952,0.74969 -1.80902,0.42381 -0.64949,-0.32587 -0.0559,0.41649 1.3191,1.6497 1.87847,1.68476 2.03342,2.07233 0.62325,1.55893 -1.80048,-0.65549 -4.62325,0.77853 -4.62325,2.3487 0,1.19401 4.95982,0.87291 5.75292,-0.37245 z m 10.24708,0.37245 c 0,-1.57017 -2.82277,-3.00419 -4.62325,-2.3487 -1.41017,0.5134 -1.25523,0.12583 0.62325,-1.55893 1.375,-1.23321 1.96859,-1.97557 1.3191,-1.6497 -0.6495,0.32588 -1.46356,0.13516 -1.80902,-0.42381 -0.34546,-0.55897 -0.93906,-1.01631 -1.3191,-1.01631 -0.90786,0 -0.864,5.18023 0.0561,6.625 0.79309,1.24536 5.75292,1.56646 5.75292,0.37245 z m -22.49948,-4.63562 c 1.39136,0.53391 6.03901,-5.15563 5.03316,-6.16148 -0.35333,-0.35334 -1.06796,0.0195 -1.58805,0.82861 -0.74756,1.16292 -1.11812,1.20431 -1.76913,0.19761 -0.45292,-0.70038 -1.80292,-1.46204 -3,-1.69258 -1.59076,-0.30635 -2.1765,0.07 -2.1765,1.39843 0,0.99967 -0.30335,3.33432 -0.67411,5.18812 -0.64956,3.24781 -0.60845,3.30488 1.12894,1.56748 0.99168,-0.99167 2.36224,-1.58846 3.04569,-1.32619 z m -1.00052,-3.36183 c -0.33992,-0.55 -0.16803,-1 0.38197,-1 0.55,0 1.27811,0.45 1.61803,1 0.33992,0.55 0.16803,1 -0.38197,1 -0.55,0 -1.27811,-0.45 -1.61803,-1 z m 33.8785,0.74484 c -0.53942,-3.93551 -0.91749,-4.5262 -2.67977,-4.18682 -1.12846,0.21732 -2.42231,0.96817 -2.87524,1.66855 -0.651,1.0067 -1.02156,0.96531 -1.76912,-0.19761 -0.52009,-0.80907 -1.24639,-1.17027 -1.614,-0.80266 -1.11847,1.11847 3.4984,6.14026 5.80113,6.30991 1.18628,0.0874 2.33911,0.70563 2.56185,1.37384 0.85318,2.55955 1.17623,0.22009 0.57515,-4.16521 z m -4.8785,-0.74484 c 0.33992,-0.55 1.06803,-1 1.61803,-1 0.55,0 0.72189,0.45 0.38197,1 -0.33992,0.55 -1.06803,1 -1.61803,1 -0.55,0 -0.72189,-0.45 -0.38197,-1 z m -25.5,-5 c 0,-0.55 -0.43588,-1 -0.96862,-1 -0.53273,0 -0.72867,-0.62527 -0.43541,-1.38949 0.31644,-0.82463 1.42162,-1.20098 2.71861,-0.92578 1.91022,0.40532 1.99071,0.29696 0.63918,-0.86051 -0.85043,-0.72832 -1.53793,-2.33672 -1.52778,-3.57422 0.0102,-1.2375 -0.30654,-2.25 -0.70376,-2.25 -0.39722,0 -1.40103,0 -2.23069,0 -1.18337,0 -1.27461,0.37716 -0.42333,1.75 1.28676,2.07514 -0.45015,7.75001 -2.06633,6.75116 -0.55103,-0.34056 -1.00187,-0.35313 -1.00187,-0.0279 0,0.57628 3.75202,2.3368 5.25,2.4634 0.4125,0.0349 0.75,-0.38661 0.75,-0.93661 z m 29.5,-1.2591 c 0.67646,-0.69967 0.59498,-0.80561 -0.25187,-0.32743 -1.85062,1.04497 -3.73494,-4.37571 -2.31633,-6.66347 0.85127,-1.37284 0.76004,-1.75 -0.42333,-1.75 -0.82966,0 -1.83347,0 -2.23069,0 -0.39722,0 -0.71392,1.0125 -0.70376,2.25 0.0102,1.2375 -0.67735,2.8459 -1.52778,3.57422 -1.35153,1.15747 -1.27104,1.26583 0.63918,0.86051 1.29699,-0.2752 2.40217,0.10115 2.71861,0.92578 0.29326,0.76422 0.0973,1.38949 -0.43542,1.38949 -0.53273,0 -0.96861,0.48032 -0.96861,1.06739 0,1.22658 3.9535,0.27307 5.5,-1.32649 z m -13.58333,-1.36513 c 1.22926,-1.10861 -1.11522,-1.45588 -2.43489,-0.36065 -1.18656,0.98476 -1.84734,1.01932 -2.72416,0.1425 -1.39263,-1.39263 -2.75762,-1.50694 -2.75762,-0.23094 0,1.72598 6.11611,2.07293 7.91667,0.44909 z m -11.91667,-9.37577 c 0,-0.55 -0.45,-1 -1,-1 -0.55,0 -1,0.45 -1,1 0,0.55 0.45,1 1,1 0.55,0 1,-0.45 1,-1 z m 18,0 c 0,-0.55 -0.45,-1 -1,-1 -0.55,0 -1,0.45 -1,1 0,0.55 0.45,1 1,1 0.55,0 1,-0.45 1,-1 z m -56,-8.48857 c 0,-1.2137 -3.44915,-4.35188 -4.24352,-3.86092 -0.48772,0.30142 -0.11271,1.40337 0.83336,2.44877 1.60727,1.77601 3.41016,2.52259 3.41016,1.41215 z m 95.41016,-1.41215 c 0.94607,-1.0454 1.32108,-2.14735 0.83336,-2.44877 -0.79437,-0.49096 -4.24352,2.64722 -4.24352,3.86092 0,1.11044 1.80289,0.36386 3.41016,-1.41215 z"
         id="path4143"
         inkscape:connector-curvature="0" />
      <path
         style="fill:#494949;fill-opacity:1"
         d="m 227.91289,475.68402 c -2.68283,-0.51593 -5.28115,-5.06728 -5.13412,-8.99316 0.0986,-2.63167 0.17357,-2.57956 1.25,0.86849 1.12704,3.61015 2.64297,6.04286 2.64743,4.24852 0.001,-0.50417 1.29994,-0.96199 2.88597,-1.01738 1.58603,-0.0554 4.24197,-1.06789 5.90209,-2.25 1.66012,-1.18211 3.55447,-2.14929 4.20966,-2.14929 0.65519,0 2.54954,0.96718 4.20966,2.14929 1.66011,1.18211 4.31605,2.19461 5.90209,2.25 1.58603,0.0554 2.88471,0.51321 2.88597,1.01738 0.005,1.79434 1.52039,-0.63837 2.64743,-4.24852 1.07643,-3.44805 1.15143,-3.50016 1.25,-0.86849 0.16783,4.48137 -2.38066,8.34744 -5.9767,9.06665 -3.42626,0.68525 -18.99638,0.6348 -22.67948,-0.0735 z m -3.25781,-12.79282 c -0.0801,-0.55 -0.3442,-2.35 -0.5869,-4 -0.31257,-2.125 -0.16498,-2.58125 0.50602,-1.5643 0.785,1.18973 1.21732,1.21159 2.5235,0.12755 0.96008,-0.79679 1.57622,-0.89245 1.57622,-0.24471 0,0.58488 -0.48154,1.36103 -1.07008,1.72477 -0.58854,0.36374 -1.46002,1.6278 -1.93661,2.80902 -0.4766,1.18122 -0.93207,1.69767 -1.01215,1.14767 z m 6.65721,-1 c -0.31658,-0.825 -0.41982,-1.5 -0.22943,-1.5 0.19039,0 0.90637,0.675 1.59106,1.5 0.71755,0.86459 0.81474,1.5 0.22943,1.5 -0.5585,0 -1.27447,-0.675 -1.59106,-1.5 z m 15.36163,0 c 0.68469,-0.825 1.40067,-1.5 1.59106,-1.5 0.19039,0 0.0872,0.675 -0.22943,1.5 -0.31659,0.825 -1.03256,1.5 -1.59106,1.5 -0.58531,0 -0.48812,-0.63541 0.22943,-1.5 z m 7,0.28911 c 0,-0.84932 -0.675,-2.10442 -1.5,-2.78911 -0.825,-0.68469 -1.5,-1.69489 -1.5,-2.24489 0,-0.55 0.7093,-0.41134 1.57621,0.30814 1.30613,1.08399 1.74164,1.06213 2.54157,-0.12755 0.68137,-1.01335 0.82733,-0.45188 0.49617,1.90859 -0.49498,3.52804 -1.61395,5.56973 -1.61395,2.94482 z m -15.25,-7.45139 c 0.6875,-0.27741 1.8125,-0.27741 2.5,0 0.6875,0.27741 0.125,0.50439 -1.25,0.50439 -1.375,0 -1.9375,-0.22698 -1.25,-0.50439 z m -14.2166,-2.92709 c -1.72372,-2.63073 -1.46549,-5.41063 0.5026,-5.41063 0.6437,0 0.83587,0.82833 0.464,2 -0.45048,1.41932 -0.1797,2 0.93261,2 0.86207,0 1.56739,0.64844 1.56739,1.44098 0,2.60442 -1.75027,2.5891 -3.4666,-0.0304 z m 28.17832,1.96775 c -1.2792,-1.27919 -0.74752,-3.37838 0.85567,-3.37838 1.14149,0 1.3847,-0.57559 0.89506,-2.11831 -0.48613,-1.53165 -0.29708,-1.99336 0.68261,-1.66714 0.74522,0.24815 1.46403,1.08889 1.59737,1.86832 0.30744,1.79718 -3.07942,6.24681 -4.03071,5.29551 z m -13.71172,-5.37838 c 0,-0.55 0.45,-1 1,-1 0.55,0 1,0.45 1,1 0,0.55 -0.45,1 -1,1 -0.55,0 -1,-0.45 -1,-1 z m -10,-3.5 c 0,-0.825 -0.63287,-1.5 -1.40638,-1.5 -0.91405,0 -1.22329,-0.70014 -0.88337,-2 0.29241,-1.11819 0.0307,-2 -0.59362,-2 -0.61415,0 -1.11663,0.43588 -1.11663,0.96861 0,0.53274 -0.675,0.7096 -1.5,0.39302 -2.24648,-0.86206 -1.80722,-3.0463 0.75,-3.72939 1.49182,-0.3985 2.71012,-0.0166 3.61546,1.13336 1.21828,1.54746 1.30746,1.41104 0.82739,-1.2656 -0.40222,-2.24258 0.0452,-3.63119 1.77219,-5.5 2.96855,-3.21234 4.19755,-7 2.27133,-7 -0.76913,0 -2.02078,-1.16291 -2.78145,-2.58423 -1.27419,-2.38085 -1.18911,-2.73076 1.08102,-4.44601 1.97242,-1.49031 2.21466,-2.11198 1.21406,-3.11577 -2.31548,-2.32287 -1.28255,-2.68008 7.75,-2.68008 9.03255,0 10.06548,0.35721 7.75,2.68008 -1.0006,1.00379 -0.75836,1.62546 1.21406,3.11577 2.27013,1.71525 2.35521,2.06516 1.08102,4.44601 -0.76067,1.42132 -2.01232,2.58423 -2.78145,2.58423 -1.92622,0 -0.69722,3.78766 2.27133,7 1.72698,1.86881 2.17441,3.25742 1.77219,5.5 -0.48007,2.67664 -0.39089,2.81306 0.82739,1.2656 0.90534,-1.14995 2.12364,-1.53186 3.61546,-1.13336 2.55722,0.68309 2.99648,2.86733 0.75,3.72939 -0.825,0.31658 -1.5,0.13972 -1.5,-0.39302 0,-0.53273 -0.50248,-0.96861 -1.11663,-0.96861 -0.6243,0 -0.88603,0.88181 -0.59362,2 0.33992,1.29986 0.0307,2 -0.88337,2 -0.77351,0 -1.40638,0.675 -1.40638,1.5 0,0.825 -0.39752,1.5 -0.88337,1.5 -1.43217,0 -1.93628,-3.51766 -1.13336,-7.90851 0.4115,-2.25032 0.3586,-4.09149 -0.11754,-4.09149 -0.47615,0 -0.86573,1.15156 -0.86573,2.55902 0,1.60097 -0.41037,2.30539 -1.09612,1.88157 -0.60286,-0.37259 -0.9074,-1.96323 -0.67675,-3.53477 0.33493,-2.28203 0.15294,-2.63621 -0.90388,-1.75913 -1.65136,1.3705 -1.75788,-0.31206 -0.12325,-1.94669 1.7173,-1.7173 0.15806,-1.48071 -2.73518,0.41501 -2.26896,1.48668 -2.66068,1.48668 -4.92964,0 -2.89324,-1.89572 -4.45248,-2.13231 -2.73518,-0.41501 1.63463,1.63463 1.52811,3.31719 -0.12325,1.94669 -1.05682,-0.87708 -1.23881,-0.5229 -0.90388,1.75913 0.23065,1.57154 -0.0739,3.16218 -0.67675,3.53477 -0.68575,0.42382 -1.09612,-0.2806 -1.09612,-1.88157 0,-1.40746 -0.38958,-2.55902 -0.86573,-2.55902 -0.47615,0 -0.52904,1.84117 -0.11754,4.09149 0.80292,4.39085 0.29881,7.90851 -1.13336,7.90851 -0.48585,0 -0.88337,-0.675 -0.88337,-1.5 z m 12,-17.43261 c 0,-0.51294 0.93254,-1.22859 2.07232,-1.59034 1.24592,-0.39544 1.85661,-1.21988 1.53139,-2.06739 -0.32575,-0.84888 0.092,-1.40966 1.05012,-1.40966 1.29484,0 1.36125,-0.2769 0.35674,-1.48726 -0.67888,-0.818 -0.95867,-2.2056 -0.62177,-3.08357 0.38966,-1.01542 0.159,-1.4451 -0.63388,-1.18081 -0.68554,0.22851 -1.2923,1.05362 -1.34836,1.83356 -0.0561,0.77994 -0.17047,1.98058 -0.25425,2.66808 -0.0839,0.68838 -1.50021,1.25 -3.15231,1.25 -1.6521,0 -3.06844,-0.56162 -3.15231,-1.25 -0.0838,-0.6875 -0.19819,-1.88814 -0.25425,-2.66808 -0.0561,-0.77994 -0.66282,-1.60505 -1.34836,-1.83356 -0.79288,-0.26429 -1.02354,0.16539 -0.63389,1.18081 0.33691,0.87797 0.0571,2.26557 -0.62176,3.08356 -1.00452,1.21037 -0.9381,1.48727 0.35674,1.48727 0.95811,0 1.37587,0.56078 1.05012,1.40966 -0.32522,0.84751 0.28547,1.67195 1.53139,2.06739 1.13977,0.36175 2.07232,1.0774 2.07232,1.59034 0,0.51293 0.45,0.93261 1,0.93261 0.55,0 1,-0.41968 1,-0.93261 z m -7.5,16.93261 c -0.33992,-0.55 -0.16803,-1 0.38197,-1 0.55,0 1.27811,0.45 1.61803,1 0.33992,0.55 0.16803,1 -0.38197,1 -0.55,0 -1.27811,-0.45 -1.61803,-1 z m 11,0 c 0.33992,-0.55 1.06803,-1 1.61803,-1 0.55,0 0.72189,0.45 0.38197,1 -0.33992,0.55 -1.06803,1 -1.61803,1 -0.55,0 -0.72189,-0.45 -0.38197,-1 z m -39.5,-0.72263 c -3.01896,-0.86143 -10.06015,-4.64492 -11.19972,-6.01801 -0.90809,-1.09419 -0.85521,-1.60738 0.23506,-2.2812 0.77371,-0.47818 1.0578,-1.21835 0.63133,-1.64483 -0.42648,-0.42647 -1.20095,-0.11344 -1.72104,0.69563 -0.82285,1.28004 -1.06641,1.28328 -1.87586,0.0249 -1.43812,-2.2357 0.53637,-4.88852 5.39569,-7.24936 l 4.35156,-2.11416 7.2131,2.31932 7.21311,2.31933 1.85615,-2.41451 c 1.02088,-1.32798 1.86615,-2.70392 1.87838,-3.05765 0.0122,-0.35373 -2.63782,-1.11171 -5.889,-1.6844 -3.25119,-0.57268 -7.80211,-2.00589 -10.11317,-3.1849 -4.89494,-2.49721 -12.40779,-9.906 -14.57916,-14.37722 l -1.51048,-3.11033 3.03012,3.5 c 1.66657,1.925 3.04223,3.1074 3.05703,2.62755 0.0148,-0.47984 0.69694,-0.31635 1.51589,0.36331 0.81894,0.67966 1.28146,1.57154 1.02782,1.98194 -0.72714,1.17654 5.10613,5.89939 9.23397,7.47618 3.12824,1.19496 10.56062,3.22742 17.24922,4.71697 1.01163,0.22529 1.46102,-0.3985 1.38026,-1.91595 -0.14128,-2.65495 1.19676,-3.0234 1.81577,-0.5 0.46966,1.9146 -1.53177,6.58093 -2.43515,5.67754 -0.30834,-0.30833 -0.85723,-0.0807 -1.21976,0.50593 -0.36254,0.58659 -0.20991,1.06653 0.33916,1.06653 0.58499,0 0.36271,1.86543 -0.53687,4.50555 -1.16751,3.42645 -1.28518,5.22272 -0.49132,7.5 0.8883,2.54819 0.79082,3.01291 -0.65411,3.11829 -0.93389,0.0681 -3.91315,0.27477 -6.62057,0.45924 -2.70743,0.18447 -5.40743,0.51245 -6,0.72885 -0.59258,0.2164 -1.75241,0.20085 -2.57741,-0.0346 z m 12,-13.3954 c 0,-0.55 -0.45,-0.72189 -1,-0.38197 -0.55,0.33992 -1,1.06803 -1,1.61803 0,0.55 0.45,0.72189 1,0.38197 0.55,-0.33992 1,-1.06803 1,-1.61803 z m 2.64421,-0.38268 c 0.0793,-1.37461 -0.25818,-2.49929 -0.75,-2.49929 -1.03718,0 -1.21298,3.3479 -0.22754,4.33333 0.36666,0.36667 0.70416,0.66635 0.75,0.66596 0.0458,-3.9e-4 0.14823,-1.12539 0.22754,-2.5 z m 53.14095,13.95254 c -0.3392,-0.3392 -4.30205,-0.74183 -13.48314,-1.36988 -0.89484,-0.0612 -0.93383,-0.83968 -0.15411,-3.0764 0.79386,-2.27728 0.67619,-4.07355 -0.49132,-7.5 -1.03337,-3.03277 -1.17367,-4.50555 -0.42923,-4.50555 1.21817,0 0.43871,-1.10576 -0.89403,-1.2683 -1.34129,-0.16357 -2.99641,-4.07777 -2.52936,-5.9817 0.61901,-2.5234 1.95705,-2.15495 1.81577,0.5 -0.0808,1.51745 0.36863,2.14124 1.38026,1.91595 6.6886,-1.48955 14.12098,-3.52201 17.24922,-4.71697 4.12784,-1.57679 9.96111,-6.29964 9.23397,-7.47618 -0.25364,-0.4104 0.20888,-1.30228 1.02782,-1.98194 0.81894,-0.67966 1.5011,-0.84315 1.51589,-0.36331 0.0148,0.47985 1.39046,-0.70255 3.05702,-2.62755 l 3.03013,-3.5 -1.51048,3.11033 c -2.17137,4.47122 -9.68422,11.88001 -14.57916,14.37722 -2.31106,1.17901 -6.86198,2.61222 -10.11317,3.1849 -3.25118,0.57269 -5.90123,1.33067 -5.889,1.6844 0.0122,0.35373 0.8575,1.72968 1.87838,3.05765 l 1.85615,2.41451 7.2131,-2.31932 7.21311,-2.31933 4.35156,2.11416 c 4.85932,2.36084 6.83381,5.01366 5.39568,7.24936 -0.80944,1.25836 -1.053,1.25512 -1.87585,-0.0249 -0.52009,-0.80907 -1.29456,-1.1221 -1.72104,-0.69563 -0.42647,0.42648 -0.14238,1.16665 0.63133,1.64483 1.09027,0.67383 1.14315,1.18701 0.23506,2.2812 -1.84966,2.22869 -12.47392,7.1331 -13.41456,6.19247 z m -10.78516,-14.51085 c 0,-1.06754 -0.4024,-1.94098 -0.89421,-1.94098 -0.49182,0 -0.82932,1.08182 -0.75,2.40404 0.16872,2.81267 1.64421,2.39713 1.64421,-0.46306 z m 2.18333,0.84235 c -0.71756,-0.71756 -1.18333,-0.7766 -1.18333,-0.15 0,1.33478 1.18261,2.51739 1.85,1.85 0.28417,-0.28416 -0.0158,-1.04916 -0.66667,-1.7 z m -25.18333,6.21667 c 0,-0.55 0.45,-1 1,-1 0.55,0 1,0.45 1,1 0,0.55 -0.45,1 -1,1 -0.55,0 -1,-0.45 -1,-1 z m -10.31833,-8.95819 c -1.06571,-1.07802 -1.40951,-2.09198 -0.83062,-2.44976 1.0581,-0.65394 4.14895,1.9381 4.14895,3.47938 0,1.41447 -1.3013,1.0107 -3.31833,-1.02962 z m 19.31833,1.02962 c 0,-1.54641 3.0925,-4.1323 4.1559,-3.47508 0.57559,0.35574 0.13794,1.41288 -1.03881,2.50919 -2.2499,2.0961 -3.11709,2.36482 -3.11709,0.96589 z m -23,-12.4138 c 0,-1.60192 3.73966,-4.2513 4.67731,-3.31365 0.27831,0.27831 0.0284,1.32727 -0.55524,2.33102 -0.58369,1.00375 -1.07494,1.4324 -1.09166,0.95256 -0.0167,-0.47985 -0.70541,-0.31225 -1.53041,0.37244 -1.22618,1.01764 -1.5,0.95515 -1.5,-0.34237 z m 28.48992,0.32606 c -0.34547,-0.55897 -0.99987,-0.78656 -1.45423,-0.50575 -0.86844,0.53673 -2.40074,-2.44622 -1.64488,-3.20209 0.84767,-0.84766 4.60919,1.81226 4.60919,3.25933 0,1.70721 -0.61861,1.89094 -1.51008,0.44851 z m -63.92563,-15.69056 c -0.54268,-1.4252 -0.42782,-1.54006 0.5598,-0.5598 0.68342,0.67834 0.99067,1.48524 0.68278,1.79313 -0.30789,0.30789 -0.86705,-0.24711 -1.24258,-1.23333 z m 99.43571,0.76589 c 0,-0.51754 0.44485,-1.21592 0.98855,-1.55194 0.56686,-0.35034 0.7345,0.0511 0.39301,0.94098 -0.66479,1.73242 -1.38156,2.04939 -1.38156,0.61096 z"
         id="path4141"
         inkscape:connector-curvature="0" />
      <path
         style="fill:#333333;fill-opacity:1"
         d="m 228.42392,475.70187 c -0.9625,-0.25152 -1.75,-1.37247 -1.75,-2.49098 0,-1.2927 0.49005,-1.84562 1.34501,-1.51754 0.73975,0.28387 3.26389,-0.34299 5.6092,-1.39301 2.34531,-1.05003 5.06591,-1.90914 6.04579,-1.90914 0.97988,0 3.70048,0.85911 6.04579,1.90914 2.34531,1.05002 4.86945,1.67688 5.6092,1.39301 0.84905,-0.32581 1.34501,0.2178 1.34501,1.47423 0,1.21875 -0.87227,2.22412 -2.25,2.59333 -2.54972,0.6833 -19.33169,0.63827 -22,-0.059 z m -4.67105,-4.72734 c -0.0434,-1.05416 0.19292,-1.64479 0.52522,-1.3125 0.33229,0.33229 0.36781,1.19479 0.079,1.91667 -0.31923,0.79773 -0.55619,0.56078 -0.60417,-0.60417 z m 31,0 c -0.0434,-1.05416 0.19292,-1.64479 0.52522,-1.3125 0.33229,0.33229 0.36781,1.19479 0.079,1.91667 -0.31923,0.79773 -0.55619,0.56078 -0.60417,-0.60417 z m -51.9673,-28.51433 c -1.00611,-0.6218 -0.7661,-1.33384 1.04025,-3.08614 1.84991,-1.79456 1.96143,-2.14123 0.52566,-1.63394 -1.00235,0.35415 -2.7189,0.16414 -3.81457,-0.42225 -1.58234,-0.84684 -1.74997,-1.35792 -0.81493,-2.48458 1.63696,-1.97242 -1.47505,-3.09685 -4.94552,-1.7869 -2.33278,0.88051 -2.61782,0.73672 -2.74992,-1.38721 -0.13786,-2.21661 -0.057,-2.25332 1.25246,-0.56876 1.10818,1.4256 1.28336,1.46356 0.84082,0.1822 -0.34894,-1.01031 0.11989,-1.84495 1.24754,-2.22097 0.99361,-0.33131 2.52649,-1.13302 3.4064,-1.78158 1.29045,-0.95116 2.01563,-0.7634 3.75,0.97097 2.35074,2.35074 5.66563,2.93584 4.86882,0.85938 -0.39504,-1.02945 0.41969,-1.08006 4.02407,-0.25 2.48567,0.57243 3.83951,1.17586 3.00855,1.34095 -1.00949,0.20057 -1.43331,1.28587 -1.27718,3.27055 0.29011,3.68796 1.51437,5.13875 1.5577,1.84595 0.0308,-2.34053 0.0781,-2.35551 1.5,-0.47554 1.42036,1.87788 1.4687,1.86159 1.48351,-0.5 0.0122,-1.94313 0.21307,-2.13513 0.98469,-0.94113 0.53316,0.825 0.97626,3.24675 0.98469,5.38167 l 0.0153,3.88167 -4,-0.53651 c -2.2,-0.29509 -4,-0.22496 -4,0.15583 0,0.99433 -7.33228,1.14805 -8.88835,0.18634 z m 5.34564,-2.9999 c 0.31644,-0.512 0.19299,-1.1672 -0.27431,-1.45601 -0.46731,-0.28881 -0.84965,0.13009 -0.84965,0.9309 0,1.68617 0.31534,1.83349 1.12396,0.52511 z m 1.14375,-5.52253 c -0.35153,-1.40061 -1.33101,-2.54657 -2.17663,-2.54657 -1.3347,0 -1.30615,0.39161 0.21649,2.96923 2.02655,3.43069 2.88103,3.24644 1.96014,-0.42266 z m 17.63358,8.32528 c 0.74475,-1.99077 -0.97458,-3.90887 -2.85648,-3.18672 -0.75798,0.29087 -1.37814,0.0921 -1.37814,-0.44161 0,-1.51678 3.46906,-0.92256 5.29604,0.90717 1.53094,1.53326 1.53015,1.74669 -0.0111,3 -1.43032,1.16307 -1.57529,1.12459 -1.05027,-0.27883 z m 24.02967,-0.008 c -0.84762,-0.84762 -0.72686,-1.54521 0.47608,-2.75 1.79778,-1.80052 5.25963,-2.37365 5.25963,-0.87074 0,0.53375 -0.62017,0.73248 -1.37815,0.44161 -1.77921,-0.68275 -3.61947,1.15751 -2.93672,2.93672 0.64255,1.67445 0.10319,1.76647 -1.42084,0.24244 z m 16.73571,0.0327 c 0,-0.38866 -1.8,-0.46523 -4,-0.17014 l -4,0.53651 0.0153,-3.88167 c 0.008,-2.13492 0.45153,-4.55667 0.98469,-5.38167 0.77162,-1.194 0.9725,-1.002 0.98469,0.94113 0.0148,2.36159 0.0632,2.37788 1.48351,0.5 1.42194,-1.87997 1.46919,-1.86499 1.5,0.47554 0.0433,3.2928 1.26759,1.84201 1.5577,-1.84595 0.15613,-1.98468 -0.26769,-3.06998 -1.27718,-3.27055 -0.83096,-0.16509 0.52288,-0.76852 3.00855,-1.34095 3.60438,-0.83006 4.41911,-0.77945 4.02407,0.25 -0.79681,2.07646 2.51808,1.49136 4.86882,-0.85938 1.73437,-1.73437 2.45954,-1.92213 3.75,-0.97097 0.87991,0.64856 2.41279,1.45027 3.4064,1.78158 1.12765,0.37602 1.59648,1.21066 1.24754,2.22097 -0.44254,1.28136 -0.26736,1.2434 0.84082,-0.1822 1.30948,-1.68456 1.39032,-1.64785 1.25245,0.56876 -0.13209,2.12393 -0.41713,2.26772 -2.74991,1.38721 -3.47047,-1.30995 -6.58248,-0.18552 -4.94552,1.7869 0.93504,1.12666 0.76741,1.63774 -0.81493,2.48458 -1.09567,0.58639 -2.81222,0.7764 -3.81457,0.42225 -1.42758,-0.50439 -1.31006,-0.14699 0.54242,1.64955 1.85711,1.80104 2.07182,2.45726 1,3.05633 -1.68405,0.94127 -8.86486,0.81343 -8.86486,-0.15783 z m 4.66667,-3.35298 c 0,-0.80081 -0.38234,-1.21971 -0.84965,-0.9309 -0.4673,0.28881 -0.59075,0.94401 -0.27431,1.45601 0.80862,1.30838 1.12396,1.16106 1.12396,-0.52511 z m 0.20367,-7.41588 c -1.38836,-0.46867 -2.83702,1.75479 -2.84844,4.37189 -0.007,1.65948 0.32829,1.48922 1.97068,-1 1.25148,-1.89676 1.57427,-3.13676 0.87776,-3.37189 z m -41.36479,-0.13424 c 0.99854,-1.10337 2.02185,-1.7998 2.27403,-1.54762 0.54163,0.54162 -2.30894,3.55375 -3.36314,3.55375 -0.39953,0 0.0906,-0.90276 1.08911,-2.00613 z m 15.64357,0.40231 c -0.74298,-0.84027 -1.15273,-1.72591 -0.91054,-1.9681 0.24219,-0.24219 1.25733,0.46242 2.25587,1.56579 0.99854,1.10337 1.40828,1.98901 0.91054,1.96809 -0.49775,-0.0209 -1.51289,-0.72552 -2.25587,-1.56578 z m -30.14912,-4.18771 c 0,-0.44466 0.55874,-1.36721 1.24164,-2.05011 1.64236,-1.64236 -0.58861,-3.12155 -4.74164,-3.14384 -3.89949,-0.0209 -14.43873,-5.05932 -16.99285,-8.12362 l -1.99284,-2.3909 2.49284,2.034 c 3.41913,2.7898 10.42915,6.466 12.32978,6.466 0.86055,0 3.80649,0.48079 6.54654,1.06843 3.85323,0.82637 4.95089,1.48045 4.84493,2.88704 -0.13223,1.75539 -3.7284,4.89303 -3.7284,3.253 z m 43.99843,-0.54023 c -3.28514,-2.56124 -2.26281,-4.44581 3.02715,-5.5803 2.79007,-0.59837 5.77694,-1.08794 6.63749,-1.08794 1.90063,0 8.91065,-3.6762 12.32978,-6.466 l 2.49284,-2.034 -1.99284,2.39091 c -2.55412,3.06429 -13.09336,8.10268 -16.99285,8.12361 -4.41313,0.0237 -6.23215,1.39837 -4.5432,3.43343 1.65991,2.00007 1.0454,2.78252 -0.95837,1.22029 z m -68.86011,-17.00157 c -0.82691,-0.99637 -0.77361,-1.33334 0.21089,-1.33334 0.7246,0 1.31746,0.6 1.31746,1.33334 0,0.73333 -0.0949,1.33333 -0.21089,1.33333 -0.11599,0 -0.70885,-0.6 -1.31746,-1.33333 z m 94.19501,0 c 0,-0.73334 0.59286,-1.33334 1.31746,-1.33334 0.9845,0 1.0378,0.33697 0.21089,1.33334 -0.60861,0.73333 -1.20147,1.33333 -1.31746,1.33333 -0.11599,0 -0.21089,-0.6 -0.21089,-1.33333 z"
         id="path4139"
         inkscape:connector-curvature="0" />
    </g>
  </g>
</svg>
